<?xml version="1.0" encoding="UTF-8" standalone="no"?>
<svg
   xmlns:dc="http://purl.org/dc/elements/1.1/"
   xmlns:cc="http://creativecommons.org/ns#"
   xmlns:rdf="http://www.w3.org/1999/02/22-rdf-syntax-ns#"
   xmlns:svg="http://www.w3.org/2000/svg"
   xmlns="http://www.w3.org/2000/svg"
   xmlns:sodipodi="http://sodipodi.sourceforge.net/DTD/sodipodi-0.dtd"
   xmlns:inkscape="http://www.inkscape.org/namespaces/inkscape"
   inkscape:version="1.0beta2 (unknown)"
   sodipodi:docname="logo.svg"
   id="svg8"
   version="1.1"
   viewBox="0 0 135.46666 33.866667"
   height="128"
   width="512">
  <defs
     id="defs2" />
  <sodipodi:namedview
     inkscape:window-maximized="1"
     inkscape:window-y="0"
     inkscape:window-x="0"
     inkscape:window-height="1376"
     inkscape:window-width="2560"
     units="px"
     showgrid="false"
     inkscape:document-rotation="0"
     inkscape:current-layer="layer1"
     inkscape:document-units="px"
     inkscape:cy="79.85818"
     inkscape:cx="228.19432"
     inkscape:zoom="2"
     inkscape:pageshadow="2"
     inkscape:pageopacity="0.0"
     borderopacity="1.0"
     bordercolor="#666666"
     pagecolor="#ffffff"
     id="base" />
  <metadata
     id="metadata5">
    <rdf:RDF>
      <cc:Work
         rdf:about="">
        <dc:format>image/svg+xml</dc:format>
        <dc:type
           rdf:resource="http://purl.org/dc/dcmitype/StillImage" />
        <dc:title></dc:title>
      </cc:Work>
    </rdf:RDF>
  </metadata>
  <g
     id="layer1"
     inkscape:groupmode="layer"
     inkscape:label="Layer 1">
    <path
       transform="scale(0.26458333)"
       d="M 110.12695 16.263672 C 107.12972 16.263672 96.140055 35.298848 97.638672 37.894531 C 98.070707 38.642838 100.22901 39.169478 103.08398 39.486328 L 103.08398 76.107422 C 103.08398 80.146539 102.05972 83.701434 100.01172 86.773438 C 97.963717 89.845441 94.861876 91.380859 90.708984 91.380859 C 88.376536 91.380859 86.357059 90.898754 84.650391 89.931641 C 82.943722 88.964528 81.663881 87.684686 80.810547 86.091797 C 79.103878 82.962904 78.251953 79.661632 78.251953 76.191406 L 78.251953 50.591797 C 78.251953 49.820873 78.197494 49.126721 78.119141 48.466797 C 80.517366 48.142605 82.268852 47.650031 82.654297 46.982422 C 84.152917 44.386737 73.163257 25.351562 70.166016 25.351562 C 67.168778 25.351563 56.177161 44.386737 57.675781 46.982422 C 58.106255 47.728025 60.252338 48.251101 63.091797 48.568359 C 63.073386 49.105797 63.0625 49.728978 63.0625 50.505859 L 63.0625 76.191406 C 63.0625 83.814525 65.366606 90.641646 69.974609 96.671875 C 72.193279 99.6301 75.064685 102.0194 78.591797 103.83984 C 82.175802 105.66029 86.129568 106.57031 90.453125 106.57031 C 94.833575 106.57031 98.816386 105.68934 102.40039 103.92578 C 105.98439 102.10534 108.91389 99.745085 111.18945 96.84375 C 115.85435 90.699742 118.1875 83.872621 118.1875 76.363281 L 118.1875 39.367188 C 120.53287 39.042792 122.23529 38.552616 122.61523 37.894531 C 124.11385 35.298848 113.12419 16.263672 110.12695 16.263672 z M 195.32812 41.972656 C 188.89967 41.972656 183.80936 43.850798 180.05469 47.605469 C 176.35691 51.30325 174.50781 55.655883 174.50781 60.662109 C 174.50781 64.303004 175.2184 67.431939 176.64062 70.048828 C 178.11974 72.608831 179.93978 74.485019 182.10156 75.679688 C 184.26334 76.874356 186.5965 77.927667 189.09961 78.837891 C 191.60273 79.691225 193.93392 80.31662 196.0957 80.714844 C 198.25748 81.113065 200.05043 81.767511 201.47266 82.677734 C 202.95177 83.531069 203.69141 84.611477 203.69141 85.919922 C 203.69141 90.243482 201.04653 92.40625 195.75586 92.40625 C 194.5043 92.40625 193.13732 91.978334 191.6582 91.125 C 190.17909 90.214776 189.04254 89.275704 188.24609 88.308594 C 185.40165 85.464146 183.18273 84.042969 181.58984 84.042969 C 179.99695 84.042969 178.48863 84.726463 177.06641 86.091797 C 174.62018 88.481134 173.39844 90.413468 173.39844 91.892578 C 173.39844 93.314802 174.13807 94.937365 175.61719 96.757812 L 176.38477 97.695312 C 177.57943 99.401981 179.68411 101.16588 182.69922 102.98633 C 184.17833 103.95344 186.11262 104.77827 188.50195 105.46094 C 190.89129 106.08672 193.42192 106.40039 196.0957 106.40039 C 201.32949 106.40039 206.25137 104.89207 210.85938 101.87695 C 213.24871 100.34095 215.183 98.180138 216.66211 95.392578 C 218.14122 92.548131 218.88086 89.275906 218.88086 85.578125 C 218.88086 81.880344 218.14122 78.780457 216.66211 76.277344 C 215.23989 73.717341 213.44694 71.926346 211.28516 70.902344 C 209.12337 69.878344 206.76313 69.024465 204.20312 68.341797 C 201.64312 67.602242 199.28287 67.062037 197.12109 66.720703 C 194.95931 66.379369 193.13732 65.724923 191.6582 64.757812 C 190.23598 63.790699 189.52539 62.537953 189.52539 61.001953 C 189.52539 59.409061 190.12369 58.187319 191.31836 57.333984 C 192.56992 56.423761 194.10534 55.96875 195.92578 55.96875 C 197.80312 55.96875 199.33853 56.338567 200.5332 57.078125 C 200.93142 57.36257 201.35934 57.732389 201.81445 58.1875 C 202.32646 58.6426 202.66723 58.927227 202.83789 59.041016 C 204.60145 60.178795 206.08072 60.746094 207.27539 60.746094 C 209.32339 60.746094 211.31382 59.324916 213.24805 56.480469 C 214.61338 54.489356 215.29687 52.924888 215.29688 51.787109 C 215.29688 50.64933 214.41395 49.255248 212.65039 47.605469 L 210.51758 45.984375 C 209.43669 45.074151 207.47335 44.191225 204.62891 43.337891 C 201.84135 42.427667 198.74146 41.972656 195.32812 41.972656 z M 235.94727 45.216797 C 232.30637 45.216797 230.11651 45.927386 229.37695 47.349609 C 228.92185 48.089167 228.63723 48.772659 228.52344 49.398438 C 228.46654 50.024214 228.4375 50.990381 228.4375 52.298828 L 228.4375 61.087891 L 225.62109 60.746094 C 224.25576 60.746094 223.11921 61.115911 222.20898 61.855469 C 221.69698 62.310579 221.29812 63.079267 221.01367 64.160156 C 220.72923 65.184159 220.58789 66.862868 220.58789 69.195312 C 220.58789 71.52776 220.98481 73.177418 221.78125 74.144531 C 222.63458 75.111642 223.6879 75.595703 224.93945 75.595703 C 226.19101 75.595703 227.35661 75.508549 228.4375 75.337891 L 228.4375 87.96875 C 228.4375 94.34031 229.97292 98.863328 233.04492 101.53711 C 236.11692 104.21089 240.61284 105.54688 246.5293 105.54688 C 247.78085 105.54688 248.71797 105.51783 249.34375 105.46094 C 250.02642 105.34716 250.7951 105.09158 251.64844 104.69336 C 253.24133 103.89691 254.03711 101.70705 254.03711 98.123047 C 254.03711 95.051044 253.38266 93.145808 252.07422 92.40625 C 251.27777 91.951144 250.51104 91.693613 249.77148 91.636719 C 249.08882 91.52293 248.06455 91.466797 246.69922 91.466797 C 245.39077 91.466797 244.48075 91.126025 243.96875 90.443359 C 243.51364 89.760691 243.28516 88.651234 243.28516 87.115234 L 243.28516 75.337891 L 248.83203 75.679688 C 250.14048 75.679687 251.1086 75.652598 251.73438 75.595703 C 252.41704 75.481927 253.18378 75.224396 254.03711 74.826172 C 255.57311 74.029727 256.3418 71.839862 256.3418 68.255859 C 256.3418 64.614965 255.60216 62.425102 254.12305 61.685547 C 253.26971 61.230441 252.50103 60.974863 251.81836 60.917969 C 251.19258 60.80418 250.22641 60.746094 248.91797 60.746094 C 247.66641 60.746094 245.78827 60.860338 243.28516 61.087891 L 243.28516 52.724609 C 243.28516 50.733496 243.14382 49.283271 242.85938 48.373047 C 242.11982 46.268155 239.81572 45.216797 235.94727 45.216797 z M 320.51172 59.636719 C 313.57127 59.636719 307.76841 61.799486 303.10352 66.123047 C 298.49551 70.389718 296.19141 76.107383 296.19141 83.275391 C 296.19141 88.964285 297.98435 94.112701 301.56836 98.720703 C 303.3888 101.11004 305.91944 103.04432 309.16211 104.52344 C 312.46167 105.94566 316.21795 106.65625 320.42773 106.65625 C 332.54508 106.65625 338.60352 104.12562 338.60352 99.0625 C 338.60352 97.981608 338.2337 96.672719 337.49414 95.136719 C 336.18569 92.576716 334.62123 91.296875 332.80078 91.296875 C 331.89056 91.296875 330.75205 91.608596 329.38672 92.234375 L 328.44727 92.576172 C 326.56993 93.258838 323.98315 93.599609 320.68359 93.599609 C 318.80626 93.599609 316.92812 93.059405 315.05078 91.978516 C 313.17345 90.897626 312.23438 89.561639 312.23438 87.96875 L 332.45898 87.96875 C 334.56387 87.96875 336.46911 87.143922 338.17578 85.494141 C 339.93934 83.787472 340.82227 81.198739 340.82227 77.728516 C 340.82227 74.2014 339.85415 70.958226 337.91992 68 C 334.22214 62.424884 328.41928 59.636719 320.51172 59.636719 z M 285.18359 60.150391 C 283.87515 60.150391 282.33973 60.632499 280.57617 61.599609 C 278.81262 62.566722 277.64701 63.335407 277.07812 63.904297 C 276.56612 64.473186 276.16726 64.957248 275.88281 65.355469 C 275.88281 64.388358 275.56914 63.449286 274.94336 62.539062 C 274.09003 61.230618 271.95826 60.576172 268.54492 60.576172 C 264.90403 60.576172 262.68512 61.344859 261.88867 62.880859 C 261.49044 63.677304 261.23486 64.416941 261.12109 65.099609 C 261.0642 65.725388 261.03516 66.691555 261.03516 68 L 261.03516 97.953125 L 261.03516 100.42773 C 261.14894 102.07751 261.66009 103.29926 262.57031 104.0957 C 263.76498 105.06282 265.72831 105.54687 268.45898 105.54688 C 272.04299 105.54688 274.2619 104.80724 275.11523 103.32812 C 275.57034 102.47479 275.82592 101.73515 275.88281 101.10938 C 275.9966 100.42671 276.05273 99.431492 276.05273 98.123047 L 276.05273 80.203125 C 276.05273 78.667122 276.70718 77.358233 278.01562 76.277344 C 279.38096 75.196454 280.83314 74.65625 282.36914 74.65625 C 283.90514 74.65625 285.12689 74.88278 286.03711 75.337891 C 287.00422 75.793004 287.99943 76.021484 289.02344 76.021484 C 291.07144 76.021484 292.63591 74.941078 293.7168 72.779297 C 294.79769 70.617518 295.33984 68.625135 295.33984 66.804688 C 295.33984 64.98424 294.97002 63.677304 294.23047 62.880859 C 293.5478 62.027525 292.66487 61.429225 291.58398 61.087891 C 290.50309 60.746569 289.50788 60.520039 288.59766 60.40625 C 287.68743 60.235592 286.54893 60.150391 285.18359 60.150391 z M 421.54688 60.490234 C 417.79222 60.490234 414.57809 62.509712 411.9043 66.548828 C 411.9043 64.614602 411.42023 63.135328 410.45312 62.111328 C 409.48602 61.087328 407.40845 60.576172 404.22266 60.576172 C 401.03687 60.576172 399.01738 61.344859 398.16406 62.880859 C 397.70906 63.677304 397.42444 64.416941 397.31055 65.099609 C 397.2536 65.725388 397.22656 66.691555 397.22656 68 L 397.22656 98.037109 C 397.22656 99.402444 397.2536 100.39766 397.31055 101.02344 C 397.42431 101.64922 397.68184 102.38885 398.08008 103.24219 C 398.87653 104.77819 401.06639 105.54688 404.65039 105.54688 C 408.23439 105.54688 410.4533 104.80724 411.30664 103.32812 C 411.7617 102.47479 412.01727 101.73515 412.07422 101.10938 C 412.18811 100.42671 412.24414 99.431492 412.24414 98.123047 L 412.24414 83.019531 C 412.24414 78.070192 413.95189 75.595703 417.36523 75.595703 C 420.89234 75.595703 422.65625 78.070192 422.65625 83.019531 L 422.65625 97.953125 C 422.65625 99.261572 422.68329 100.25679 422.74023 100.93945 C 422.85402 101.56523 423.11155 102.30487 423.50977 103.1582 C 424.30621 104.7511 426.49608 105.54687 430.08008 105.54688 C 433.72097 105.54688 435.93988 104.77819 436.73633 103.24219 C 437.19138 102.38885 437.44696 101.64922 437.50391 101.02344 C 437.6178 100.39766 437.67383 99.402444 437.67383 98.037109 L 437.67383 83.103516 C 437.67383 80.714179 438.01656 78.865085 438.69922 77.556641 C 439.43877 76.248193 440.80379 75.595703 442.79492 75.595703 C 446.32203 75.595703 448.08594 78.070192 448.08594 83.019531 L 448.08594 97.953125 C 448.08594 99.261572 448.11298 100.25679 448.16992 100.93945 C 448.28369 101.56523 448.54122 102.30487 448.93945 103.1582 C 449.7359 104.7511 451.92577 105.54687 455.50977 105.54688 C 459.15066 105.54688 461.34053 104.77819 462.08008 103.24219 C 462.53513 102.38885 462.79071 101.64922 462.84766 101.02344 C 462.96155 100.34077 463.01953 99.345557 463.01953 98.037109 L 463.01953 83.103516 C 463.01953 75.025284 461.48216 69.251476 458.41016 65.78125 C 455.33816 62.254137 451.52767 60.490234 446.97656 60.490234 C 444.92856 60.490234 442.93619 61.059487 441.00195 62.197266 C 439.06774 63.278155 437.64656 64.302418 436.73633 65.269531 C 435.88299 66.179752 435.14334 67.060728 434.51758 67.914062 C 431.67313 62.964726 427.34956 60.490234 421.54688 60.490234 z M 131.58398 60.576172 C 128.56887 60.576172 126.66363 61.344859 125.86719 62.880859 C 125.46898 63.677304 125.2134 64.387893 125.09961 65.013672 C 125.04271 65.639451 125.01367 66.605618 125.01367 67.914062 L 125.01367 117.75 C 125.01367 119.05844 125.04271 120.02461 125.09961 120.65039 C 125.21339 121.27617 125.46896 121.98871 125.86719 122.78516 C 126.3223 123.5816 127.06193 124.1489 128.08594 124.49023 C 129.16683 124.83157 130.588 125.00195 132.35156 125.00195 C 134.11512 125.00195 135.5092 124.83157 136.5332 124.49023 C 137.5572 124.1489 138.26975 123.55255 138.66797 122.69922 C 139.12307 121.90277 139.37865 121.19219 139.43555 120.56641 C 139.54934 119.94063 139.60547 118.97251 139.60547 117.66406 L 139.60547 100.42773 C 141.71036 103.04462 145.09487 104.35156 149.75977 104.35156 C 154.42466 104.35156 158.80634 102.1617 162.90234 97.78125 C 167.05524 93.4008 169.13086 88.308533 169.13086 82.505859 C 169.13086 76.703188 167.05524 71.612872 162.90234 67.232422 C 158.74945 62.851972 154.34068 60.662109 149.67578 60.662109 C 145.06778 60.662109 141.68327 62.141383 139.52148 65.099609 C 139.35082 63.620496 138.72347 62.51104 137.64258 61.771484 C 136.61858 60.97504 134.5991 60.576172 131.58398 60.576172 z M 382.29297 60.576172 C 378.14007 60.576172 375.89407 62.16969 375.55273 65.355469 C 375.15451 64.786579 374.6414 64.217327 374.01562 63.648438 C 373.38985 63.022661 372.28039 62.368215 370.6875 61.685547 C 369.09461 61.002879 367.33266 60.662109 365.39844 60.662109 C 360.33532 60.662109 355.66901 62.908115 351.40234 67.402344 C 347.19256 71.839681 345.08789 77.046192 345.08789 83.019531 C 345.08789 88.935981 347.19256 94.140537 351.40234 98.634766 C 355.61213 103.12899 360.16419 105.37695 365.05664 105.37695 C 370.00598 105.37695 373.53183 103.86863 375.63672 100.85352 C 375.80738 102.33263 376.40569 103.47113 377.42969 104.26758 C 378.51057 105.00713 380.5862 105.37695 383.6582 105.37695 C 386.7871 105.37695 388.75043 104.63732 389.54688 103.1582 C 389.94504 102.30487 390.17352 101.56523 390.23047 100.93945 C 390.34436 100.25679 390.40039 99.261572 390.40039 97.953125 L 390.40039 68.085938 C 390.40039 66.777493 390.34436 65.809373 390.23047 65.183594 C 390.1736 64.500925 389.91607 63.734194 389.46094 62.880859 C 389.06273 62.027525 388.32308 61.429225 387.24219 61.087891 C 386.16129 60.746559 384.51163 60.576172 382.29297 60.576172 z M 320.25586 73.121094 C 322.1332 73.121094 323.55633 73.518008 324.52344 74.314453 C 325.54744 75.1109 326.05859 76.164211 326.05859 77.472656 C 326.05859 79.293104 324.97819 80.203125 322.81641 80.203125 L 312.06445 80.203125 C 312.06445 78.496457 312.97447 76.902941 314.79492 75.423828 C 316.61537 73.887826 318.43541 73.121094 320.25586 73.121094 z M 147.11523 75.253906 C 149.33391 75.253906 151.1249 76.020638 152.49023 77.556641 C 153.85557 79.035754 154.53906 80.714463 154.53906 82.591797 C 154.53906 84.469134 153.79943 86.147843 152.32031 87.626953 C 150.89809 89.106066 149.13419 89.845703 147.0293 89.845703 C 144.98129 89.845703 143.27549 89.106066 141.91016 87.626953 C 140.60171 86.090953 139.94727 84.412244 139.94727 82.591797 C 139.94727 80.771352 140.60171 79.092643 141.91016 77.556641 C 143.2186 76.020638 144.95346 75.253906 147.11523 75.253906 z M 367.53125 75.509766 C 369.80681 75.509766 371.5978 76.305548 372.90625 77.898438 C 374.27158 79.491329 374.95508 81.226181 374.95508 83.103516 C 374.95508 84.923963 374.24449 86.602672 372.82227 88.138672 C 371.45693 89.674674 369.72208 90.443359 367.61719 90.443359 C 365.5123 90.443359 363.71935 89.703722 362.24023 88.224609 C 360.76112 86.688607 360.02148 84.98085 360.02148 83.103516 C 360.02148 81.226181 360.70498 79.491329 362.07031 77.898438 C 363.49254 76.305548 365.31258 75.509766 367.53125 75.509766 z "
       style="font-style:normal;font-variant:normal;font-weight:normal;font-stretch:normal;font-size:22.5778px;line-height:1.25;font-family:'Fredoka One';-inkscape-font-specification:'Fredoka One';letter-spacing:0px;word-spacing:0px;fill:#ffaacc;fill-opacity:1;stroke:none;stroke-width:0.999999"
       id="path18" />
    <circle
       r="1.4776876"
       cy="7.8406067"
       cx="76.90461"
       id="path46"
       style="fill:#ffaacc;stroke-width:2;stroke-linecap:round;stroke-linejoin:round;paint-order:markers fill stroke;stop-color:#000000;opacity:0.40952417" />
    <circle
       r="2.4202657"
       cy="9.0198631"
       cx="94.593452"
       id="path48"
       style="fill:#ffaacc;stroke-width:2;stroke-linecap:round;stroke-linejoin:round;paint-order:markers fill stroke;stop-color:#000000;opacity:0.74981038" />
    <circle
       r="1.158844"
       cy="6.6231098"
       cx="107.62624"
       id="path50"
       style="fill:#ffaacc;stroke-width:2;stroke-linecap:round;stroke-linejoin:round;paint-order:markers fill stroke;stop-color:#000000;opacity:0.40952417" />
    <circle
       r="1.1800313"
       cy="5.4412699"
       cx="51.753689"
       id="path52"
       style="fill:#ffaacc;stroke-width:2;stroke-linecap:round;stroke-linejoin:round;paint-order:markers fill stroke;stop-color:#000000;opacity:0.40952417" />
    <circle
       r="2.951241"
       cy="8.7431355"
       cx="39.51955"
       id="path54"
       style="fill:#ffaacc;stroke-width:2;stroke-linecap:round;stroke-linejoin:round;paint-order:markers fill stroke;stop-color:#000000;opacity:0.78556078" />
    <circle
       r="0.78961587"
       cy="19.566765"
       cx="9.9559813"
       id="path56"
       style="fill:#ffaacc;stroke-width:2;stroke-linecap:round;stroke-linejoin:round;paint-order:markers fill stroke;stop-color:#000000;opacity:0.40952417" />
    <circle
       r="0.68264568"
       cy="16.482714"
       cx="22.416719"
       id="path58"
       style="fill:#ffaacc;stroke-width:2;stroke-linecap:round;stroke-linejoin:round;paint-order:markers fill stroke;stop-color:#000000;opacity:0.40952417" />
    <circle
       r="1.1200867"
       cy="5.5663266"
       cx="6.339406"
       id="path60"
       style="fill:#ffaacc;stroke-width:2;stroke-linecap:round;stroke-linejoin:round;paint-order:markers fill stroke;stop-color:#000000;opacity:0.40952417" />
    <circle
       r="1.9887675"
       cy="6.3109841"
       cx="14.956968"
       id="path62"
       style="fill:#ffaacc;stroke-width:2;stroke-linecap:round;stroke-linejoin:round;paint-order:markers fill stroke;stop-color:#000000;opacity:0.49375506" />
    <circle
       r="1.5743225"
       cy="11.528753"
       cx="119.51079"
       id="path64"
       style="fill:#ffaacc;stroke-width:2;stroke-linecap:round;stroke-linejoin:round;paint-order:markers fill stroke;stop-color:#000000;opacity:0.40952417" />
    <circle
       r="0.6431132"
       cy="4.0558248"
       cx="117.2422"
       id="path66"
       style="fill:#ffaacc;stroke-width:2;stroke-linecap:round;stroke-linejoin:round;paint-order:markers fill stroke;stop-color:#000000;opacity:0.40952417" />
    <circle
       r="2.6520348"
       cy="8.2170687"
       cx="126.99793"
       id="path68"
       style="fill:#ffaacc;stroke-width:2;stroke-linecap:round;stroke-linejoin:round;paint-order:markers fill stroke;stop-color:#000000;opacity:0.68475678" />
    <circle
       style="fill:#ffaacc;stroke-width:1;stroke-linecap:round;stroke-linejoin:round;paint-order:markers fill stroke;stop-color:#000000;opacity:0.40952417"
       id="circle70"
       cx="128.80402"
       cy="21.047293"
       r="1.3260174" />
    <circle
       r="0.79685068"
       cy="30.57229"
       cx="111.34152"
       id="circle72"
       style="fill:#ffaacc;stroke-width:0.600936;stroke-linecap:round;stroke-linejoin:round;paint-order:markers fill stroke;stop-color:#000000;opacity:0.40952417" />
    <circle
       style="fill:#ffaacc;stroke-width:0.401403;stroke-linecap:round;stroke-linejoin:round;paint-order:markers fill stroke;stop-color:#000000;opacity:0.40952417"
       id="circle74"
       cx="75.887367"
       cy="26.338959"
       r="0.53226733" />
    <circle
       r="0.53226733"
       cy="31.101458"
       cx="59.483204"
       id="circle76"
       style="fill:#ffaacc;stroke-width:0.401403;stroke-linecap:round;stroke-linejoin:round;paint-order:markers fill stroke;stop-color:#000000;opacity:0.40952417" />
    <circle
       style="fill:#ffaacc;stroke-width:0.401404;stroke-linecap:round;stroke-linejoin:round;paint-order:markers fill stroke;stop-color:#000000;opacity:0.40952417"
       id="circle78"
       cx="44.666534"
       cy="27.397293"
       r="0.53226733" />
    <circle
       style="fill:#ffaacc;stroke-width:2;stroke-linecap:round;stroke-linejoin:round;paint-order:markers fill stroke;stop-color:#000000;opacity:0.40952417"
       id="circle80"
       cx="6.028832"
       cy="30.340008"
       r="1.1800313" />
  </g>
</svg>
